<mxfile host="app.diagrams.net" modified="2024-07-08T16:31:48.171Z" agent="Mozilla/5.0 (Windows NT 10.0; Win64; x64) AppleWebKit/537.36 (KHTML, like Gecko) Chrome/126.0.0.0 Safari/537.36" etag="jxwbtYlDbbmGRxVQpcXz" version="24.6.4" type="github">
  <diagram name="Page-1" id="0ixSnLqTkGIwiDNCtMaO">
    <mxGraphModel dx="1434" dy="866" grid="1" gridSize="10" guides="1" tooltips="1" connect="1" arrows="1" fold="1" page="1" pageScale="1" pageWidth="850" pageHeight="1100" math="0" shadow="0">
      <root>
        <mxCell id="0" />
        <mxCell id="1" parent="0" />
        <mxCell id="XeNOOer_eIZAZivH8xoa-2" value="Actor" style="shape=umlActor;verticalLabelPosition=bottom;verticalAlign=top;html=1;outlineConnect=0;" vertex="1" parent="1">
          <mxGeometry x="40" y="40" width="30" height="60" as="geometry" />
        </mxCell>
        <mxCell id="XeNOOer_eIZAZivH8xoa-3" value="enters URL" style="endArrow=classic;html=1;rounded=0;entryX=0;entryY=0.25;entryDx=0;entryDy=0;fillColor=#dae8fc;strokeColor=#6c8ebf;strokeWidth=4;" edge="1" parent="1" source="XeNOOer_eIZAZivH8xoa-2" target="XeNOOer_eIZAZivH8xoa-15">
          <mxGeometry width="50" height="50" relative="1" as="geometry">
            <mxPoint x="400" y="650" as="sourcePoint" />
            <mxPoint x="160" y="60" as="targetPoint" />
          </mxGeometry>
        </mxCell>
        <mxCell id="XeNOOer_eIZAZivH8xoa-5" value="Send Packet" style="endArrow=classic;html=1;rounded=0;exitX=1;exitY=0.25;exitDx=0;exitDy=0;entryX=0;entryY=0.5;entryDx=0;entryDy=0;fillColor=#dae8fc;strokeColor=#6c8ebf;strokeWidth=4;" edge="1" parent="1" source="XeNOOer_eIZAZivH8xoa-15" target="XeNOOer_eIZAZivH8xoa-13">
          <mxGeometry width="50" height="50" relative="1" as="geometry">
            <mxPoint x="280" y="60" as="sourcePoint" />
            <mxPoint x="425" y="190" as="targetPoint" />
          </mxGeometry>
        </mxCell>
        <mxCell id="XeNOOer_eIZAZivH8xoa-7" value="" style="endArrow=classic;html=1;rounded=0;entryX=0;entryY=0.25;entryDx=0;entryDy=0;exitX=1;exitY=0.5;exitDx=0;exitDy=0;fillColor=#dae8fc;strokeColor=#6c8ebf;strokeWidth=4;" edge="1" parent="1" source="XeNOOer_eIZAZivH8xoa-14" target="XeNOOer_eIZAZivH8xoa-16">
          <mxGeometry width="50" height="50" relative="1" as="geometry">
            <mxPoint x="575" y="190" as="sourcePoint" />
            <mxPoint x="760" y="80" as="targetPoint" />
          </mxGeometry>
        </mxCell>
        <mxCell id="XeNOOer_eIZAZivH8xoa-12" value="Router" style="swimlane;whiteSpace=wrap;html=1;" vertex="1" parent="1">
          <mxGeometry x="470" y="20" width="530" height="540" as="geometry">
            <mxRectangle x="250" y="530" width="140" height="30" as="alternateBounds" />
          </mxGeometry>
        </mxCell>
        <mxCell id="XeNOOer_eIZAZivH8xoa-8" value="Forwarding Table" style="rounded=1;whiteSpace=wrap;html=1;" vertex="1" parent="XeNOOer_eIZAZivH8xoa-12">
          <mxGeometry x="30" y="130" width="120" height="30" as="geometry" />
        </mxCell>
        <mxCell id="XeNOOer_eIZAZivH8xoa-13" value="Inbound Port" style="rounded=1;whiteSpace=wrap;html=1;" vertex="1" parent="XeNOOer_eIZAZivH8xoa-12">
          <mxGeometry x="30" y="40" width="120" height="30" as="geometry" />
        </mxCell>
        <mxCell id="XeNOOer_eIZAZivH8xoa-14" value="Out&lt;span style=&quot;background-color: initial;&quot;&gt;bound Port&lt;/span&gt;" style="rounded=1;whiteSpace=wrap;html=1;" vertex="1" parent="XeNOOer_eIZAZivH8xoa-12">
          <mxGeometry x="380" y="40" width="120" height="30" as="geometry" />
        </mxCell>
        <mxCell id="XeNOOer_eIZAZivH8xoa-21" value="" style="endArrow=classic;html=1;rounded=0;exitX=0.5;exitY=1;exitDx=0;exitDy=0;entryX=0.5;entryY=0;entryDx=0;entryDy=0;dashed=1;" edge="1" parent="XeNOOer_eIZAZivH8xoa-12" source="XeNOOer_eIZAZivH8xoa-13" target="XeNOOer_eIZAZivH8xoa-8">
          <mxGeometry width="50" height="50" relative="1" as="geometry">
            <mxPoint x="-110" y="380" as="sourcePoint" />
            <mxPoint x="-60" y="330" as="targetPoint" />
          </mxGeometry>
        </mxCell>
        <mxCell id="XeNOOer_eIZAZivH8xoa-24" value="Find next&lt;div&gt;hop IP&lt;/div&gt;" style="edgeLabel;html=1;align=center;verticalAlign=middle;resizable=0;points=[];" vertex="1" connectable="0" parent="XeNOOer_eIZAZivH8xoa-21">
          <mxGeometry x="-0.16" y="-2" relative="1" as="geometry">
            <mxPoint as="offset" />
          </mxGeometry>
        </mxCell>
        <mxCell id="XeNOOer_eIZAZivH8xoa-25" value="ARM Table" style="rounded=1;whiteSpace=wrap;html=1;" vertex="1" parent="XeNOOer_eIZAZivH8xoa-12">
          <mxGeometry x="30" y="220" width="120" height="30" as="geometry" />
        </mxCell>
        <mxCell id="XeNOOer_eIZAZivH8xoa-26" value="" style="endArrow=classic;html=1;rounded=0;exitX=0.5;exitY=1;exitDx=0;exitDy=0;dashed=1;entryX=0.5;entryY=0;entryDx=0;entryDy=0;" edge="1" parent="XeNOOer_eIZAZivH8xoa-12" source="XeNOOer_eIZAZivH8xoa-8" target="XeNOOer_eIZAZivH8xoa-25">
          <mxGeometry width="50" height="50" relative="1" as="geometry">
            <mxPoint x="89.5" y="160" as="sourcePoint" />
            <mxPoint x="120" y="200" as="targetPoint" />
          </mxGeometry>
        </mxCell>
        <mxCell id="XeNOOer_eIZAZivH8xoa-27" value="Find MAC of&lt;div&gt;next hop&lt;/div&gt;" style="edgeLabel;html=1;align=center;verticalAlign=middle;resizable=0;points=[];" vertex="1" connectable="0" parent="XeNOOer_eIZAZivH8xoa-26">
          <mxGeometry x="-0.16" y="-2" relative="1" as="geometry">
            <mxPoint as="offset" />
          </mxGeometry>
        </mxCell>
        <mxCell id="XeNOOer_eIZAZivH8xoa-28" value="Buffer Memory" style="rounded=1;whiteSpace=wrap;html=1;" vertex="1" parent="XeNOOer_eIZAZivH8xoa-12">
          <mxGeometry x="205" y="40" width="120" height="30" as="geometry" />
        </mxCell>
        <mxCell id="XeNOOer_eIZAZivH8xoa-30" value="MAC&lt;div&gt;found?&lt;/div&gt;" style="rhombus;whiteSpace=wrap;html=1;" vertex="1" parent="XeNOOer_eIZAZivH8xoa-12">
          <mxGeometry x="50" y="300" width="80" height="80" as="geometry" />
        </mxCell>
        <mxCell id="XeNOOer_eIZAZivH8xoa-33" value="" style="endArrow=classic;html=1;rounded=0;dashed=1;exitX=0.5;exitY=1;exitDx=0;exitDy=0;" edge="1" parent="XeNOOer_eIZAZivH8xoa-12" source="XeNOOer_eIZAZivH8xoa-25" target="XeNOOer_eIZAZivH8xoa-30">
          <mxGeometry width="50" height="50" relative="1" as="geometry">
            <mxPoint x="-430" y="420" as="sourcePoint" />
            <mxPoint x="-330" y="420" as="targetPoint" />
          </mxGeometry>
        </mxCell>
        <mxCell id="XeNOOer_eIZAZivH8xoa-38" value="" style="endArrow=classic;html=1;rounded=0;strokeWidth=3;fillColor=#dae8fc;strokeColor=#6c8ebf;exitX=1;exitY=0.5;exitDx=0;exitDy=0;entryX=0;entryY=0.5;entryDx=0;entryDy=0;" edge="1" parent="XeNOOer_eIZAZivH8xoa-12" source="XeNOOer_eIZAZivH8xoa-13" target="XeNOOer_eIZAZivH8xoa-28">
          <mxGeometry width="50" height="50" relative="1" as="geometry">
            <mxPoint x="160" y="54.5" as="sourcePoint" />
            <mxPoint x="260" y="54.5" as="targetPoint" />
          </mxGeometry>
        </mxCell>
        <mxCell id="XeNOOer_eIZAZivH8xoa-39" value="" style="endArrow=classic;html=1;rounded=0;strokeWidth=3;fillColor=#dae8fc;strokeColor=#6c8ebf;exitX=1;exitY=0.5;exitDx=0;exitDy=0;entryX=0;entryY=0.5;entryDx=0;entryDy=0;" edge="1" parent="XeNOOer_eIZAZivH8xoa-12" source="XeNOOer_eIZAZivH8xoa-28" target="XeNOOer_eIZAZivH8xoa-14">
          <mxGeometry width="50" height="50" relative="1" as="geometry">
            <mxPoint x="360" y="100" as="sourcePoint" />
            <mxPoint x="380" y="120" as="targetPoint" />
          </mxGeometry>
        </mxCell>
        <mxCell id="XeNOOer_eIZAZivH8xoa-15" value="Browser" style="swimlane;whiteSpace=wrap;html=1;" vertex="1" parent="1">
          <mxGeometry x="180" y="20" width="200" height="200" as="geometry" />
        </mxCell>
        <mxCell id="XeNOOer_eIZAZivH8xoa-16" value="Switch" style="swimlane;whiteSpace=wrap;html=1;" vertex="1" parent="1">
          <mxGeometry x="1100" y="20" width="200" height="200" as="geometry" />
        </mxCell>
        <mxCell id="XeNOOer_eIZAZivH8xoa-19" value="" style="endArrow=classic;html=1;rounded=0;strokeWidth=3;fillColor=#dae8fc;strokeColor=#6c8ebf;" edge="1" parent="1" target="XeNOOer_eIZAZivH8xoa-20">
          <mxGeometry width="50" height="50" relative="1" as="geometry">
            <mxPoint x="30" y="400" as="sourcePoint" />
            <mxPoint x="120" y="400" as="targetPoint" />
          </mxGeometry>
        </mxCell>
        <mxCell id="XeNOOer_eIZAZivH8xoa-20" value="Data Flow" style="text;html=1;align=center;verticalAlign=middle;whiteSpace=wrap;rounded=0;" vertex="1" parent="1">
          <mxGeometry x="130" y="385" width="60" height="30" as="geometry" />
        </mxCell>
        <mxCell id="XeNOOer_eIZAZivH8xoa-22" value="" style="endArrow=classic;html=1;rounded=0;dashed=1;" edge="1" parent="1" target="XeNOOer_eIZAZivH8xoa-23">
          <mxGeometry width="50" height="50" relative="1" as="geometry">
            <mxPoint x="30" y="430" as="sourcePoint" />
            <mxPoint x="130" y="430" as="targetPoint" />
          </mxGeometry>
        </mxCell>
        <mxCell id="XeNOOer_eIZAZivH8xoa-23" value="Sequence" style="text;html=1;align=center;verticalAlign=middle;whiteSpace=wrap;rounded=0;" vertex="1" parent="1">
          <mxGeometry x="130" y="415" width="60" height="30" as="geometry" />
        </mxCell>
        <mxCell id="XeNOOer_eIZAZivH8xoa-29" value="Send an ARP request to learn the MAC address" style="shape=process;whiteSpace=wrap;html=1;backgroundOutline=1;" vertex="1" parent="1">
          <mxGeometry x="300" y="330" width="130" height="60" as="geometry" />
        </mxCell>
        <mxCell id="XeNOOer_eIZAZivH8xoa-31" value="" style="endArrow=classic;html=1;rounded=0;exitX=0;exitY=0.5;exitDx=0;exitDy=0;dashed=1;entryX=1;entryY=0.5;entryDx=0;entryDy=0;" edge="1" parent="1" source="XeNOOer_eIZAZivH8xoa-30" target="XeNOOer_eIZAZivH8xoa-29">
          <mxGeometry width="50" height="50" relative="1" as="geometry">
            <mxPoint x="570" y="190" as="sourcePoint" />
            <mxPoint x="570" y="250" as="targetPoint" />
          </mxGeometry>
        </mxCell>
        <mxCell id="XeNOOer_eIZAZivH8xoa-32" value="No" style="edgeLabel;html=1;align=center;verticalAlign=middle;resizable=0;points=[];" vertex="1" connectable="0" parent="XeNOOer_eIZAZivH8xoa-31">
          <mxGeometry x="-0.16" y="-2" relative="1" as="geometry">
            <mxPoint as="offset" />
          </mxGeometry>
        </mxCell>
        <mxCell id="XeNOOer_eIZAZivH8xoa-34" value="" style="endArrow=classic;html=1;rounded=0;exitX=1;exitY=0.5;exitDx=0;exitDy=0;dashed=1;" edge="1" parent="1" source="XeNOOer_eIZAZivH8xoa-30">
          <mxGeometry width="50" height="50" relative="1" as="geometry">
            <mxPoint x="530" y="370" as="sourcePoint" />
            <mxPoint x="720" y="360" as="targetPoint" />
          </mxGeometry>
        </mxCell>
        <mxCell id="XeNOOer_eIZAZivH8xoa-35" value="No" style="edgeLabel;html=1;align=center;verticalAlign=middle;resizable=0;points=[];" vertex="1" connectable="0" parent="XeNOOer_eIZAZivH8xoa-34">
          <mxGeometry x="-0.16" y="-2" relative="1" as="geometry">
            <mxPoint as="offset" />
          </mxGeometry>
        </mxCell>
        <mxCell id="XeNOOer_eIZAZivH8xoa-36" value="Yes&lt;div&gt;&lt;br&gt;&lt;/div&gt;" style="edgeLabel;html=1;align=center;verticalAlign=middle;resizable=0;points=[];" vertex="1" connectable="0" parent="XeNOOer_eIZAZivH8xoa-34">
          <mxGeometry x="-0.1333" y="-7" relative="1" as="geometry">
            <mxPoint as="offset" />
          </mxGeometry>
        </mxCell>
      </root>
    </mxGraphModel>
  </diagram>
</mxfile>
